HIERARCHY
ROOT Hips
{
	OFFSET 0.00000 0.00000 0.00000
	CHANNELS 6 Xposition Yposition Zposition Yrotation Zrotation Xrotation 
	JOINT Lumbar
	{
		OFFSET 0 0 0
		CHANNELS 3 Zrotation Xrotation Yrotation
		JOINT Neck
		{
			OFFSET 0.00 0.2701 0.00
			CHANNELS 3 Zrotation Xrotation Yrotation
			End Site
			{
				OFFSET 0.00 0.1379 0.00
			}
		}
		JOINT RightShoulder
		{
			OFFSET 0.0119 0.2289 0.1181
			CHANNELS 3 Zrotation Xrotation Yrotation
			JOINT RightElbow
			{
				OFFSET 0.00 -0.1475 0.00
				CHANNELS 2 Zrotation Yrotation
				JOINT RightWrist
				{
					OFFSET 0.00 -0.1605 0.00
					CHANNELS 2 Zrotation Xrotation
					End Site
					{
						OFFSET 0.0040 -0.1068 0.0006
					}
				}
			}
		}
		JOINT LeftShoulder
		{
			OFFSET 0.0119 0.2289 -0.1181
			CHANNELS 3 Zrotation Xrotation Yrotation
			JOINT LeftElbow
			{
				OFFSET 0.00 -0.1475 0.00
				CHANNELS 2 Zrotation Yrotation
				JOINT LeftWrist
				{
					OFFSET 0.00 -0.1605 0.00
					CHANNELS 2 Zrotation Xrotation
					End Site
					{
						OFFSET 0.0040 -0.1068 -0.0006
					}
				}
			}
		}
	}
	JOINT RightHip
	{
		OFFSET 0.0316 -0.0424 0.0458
		CHANNELS 3 Zrotation Xrotation Yrotation
		JOINT RightKnee
		{
			OFFSET 0.00 -0.2438 0.00
			CHANNELS 1 Zrotation
			JOINT RightAnkle
			{
				OFFSET 0.00 -0.2449 0.00
				CHANNELS 3 Zrotation Xrotation Yrotation
				End Site
				{
					OFFSET 0.1237 -0.0542 0.0051
				}
			}
		}
	}
	JOINT LeftHip
	{
		OFFSET 0.0316 -0.0424 -0.0458
		CHANNELS 3 Zrotation Xrotation Yrotation
		JOINT LeftKnee
		{
			OFFSET 0.00 -0.2438 0.00
			CHANNELS 1 Zrotation
			JOINT LeftAnkle
			{
				OFFSET 0.00 -0.2449 0.00
				CHANNELS 3 Zrotation Xrotation Yrotation
				End Site
				{
					OFFSET 0.1237 -0.0542 -0.0051
				}
			}
		}
	}
}
MOTION
Frames: 27
Frame Time: 0.02
-1.34428 -0.24004 -0.28725 1319.00566 -41.33872 3.97749 42.26654 7.07822 5.87295 -1.97191 -2.64089 -2.11994 -11.49559 -18.23553 -19.17219 19.70594 79.91596 -3.72765 0.84627 -44.05328 9.73717 -5.56029 76.39169 -108.99791 8.79498 -5.39003 28.08108 13.65439 -46.36587 -4.56675 7.98256 32.54715 12.74383 41.92507 20.03855 -6.09203 -58.55049 -8.59128 2.2058 3.40162
-1.34886 -0.24091 -0.28196 1319.6445 -41.11563 4.44154 41.98853 6.9843 6.4519 -2.24934 -2.83778 -2.11994 -11.18448 -18.84976 -18.01194 20.29003 77.75913 -4.37167 1.60161 -43.82052 10.25826 -6.11951 76.5742 -105.48072 7.81227 -4.56585 26.78918 13.72215 -46.07028 -3.78963 8.50211 33.53424 13.20018 44.15171 19.18643 -5.22303 -57.5613 -8.39542 2.44798 3.51018
-1.35325 -0.24199 -0.27653 1320.27522 -40.92873 4.87544 41.77554 6.90075 7.01413 -2.5839 -3.05324 -2.11994 -10.87035 -19.23627 -18.15908 20.85588 74.22457 -5.45153 2.79673 -43.48355 11.15519 -7.07339 76.78337 -99.90469 6.41274 -3.2594 25.83731 13.68305 -44.86834 -3.60869 8.29837 32.94202 12.92663 46.06277 18.27163 -4.16159 -55.40156 -8.26158 2.65008 3.60252
-1.35773 -0.243 -0.27113 1320.91354 -40.728 5.31508 41.53957 6.81417 7.56821 -2.89452 -3.25877 -2.11994 -10.57545 -19.72478 -17.63362 21.42864 71.54171 -6.25793 3.72119 -43.21491 11.83632 -7.79656 76.98216 -95.45806 5.25392 -2.2562 24.73526 13.69384 -44.14978 -3.17065 8.45537 33.11396 13.00625 48.1053 17.39511 -3.19656 -53.74296 -8.10922 2.85185 3.69374
-1.36219 -0.2439 -0.26589 1321.53964 -40.5154 5.79321 41.27588 6.71833 8.18592 -3.20226 -3.47295 -2.11994 -10.21711 -20.23633 -17.32792 22.02094 68.01019 -7.34414 4.92028 -42.86346 12.69694 -8.72424 77.17596 -90.23219 3.88685 -0.91423 23.61661 13.6964 -43.14953 -2.67254 8.50448 33.14403 13.02034 50.18392 16.4675 -2.14608 -52.15129 -7.92852 3.07868 3.79575
-1.36664 -0.24508 -0.26028 1322.1866 -40.33781 6.1822 41.08628 6.64467 8.66858 -3.52583 -3.6731 -2.11994 -9.98563 -20.63479 -16.93183 22.56419 65.84145 -7.97707 5.6702 -42.65626 13.27873 -9.32669 77.38462 -86.12056 2.84905 -0.15031 22.61358 13.69154 -42.50845 -2.44158 8.59527 33.07276 12.98749 52.11885 15.63898 -1.23894 -50.17488 -7.816 3.26279 3.88031
-1.37113 -0.24695 -0.25379 1322.90531 -40.231 6.33169 41.07403 6.63438 8.77872 -3.8982 -3.82377 -2.11994 -10.10653 -20.83569 -15.78327 22.96103 68.26322 -7.10624 4.9555 -42.88864 12.978 -8.90712 77.64061 -85.65189 2.8516 -1.18407 21.83413 13.69448 -43.13783 -2.8045 8.9861 33.119 13.00859 53.71959 15.05148 -0.86764 -47.31858 -7.88715 3.35708 3.93006
-1.37562 -0.24911 -0.24694 1323.6423 -40.16112 6.39198 41.136 6.64546 8.75513 -4.28029 -3.96038 -2.11994 -10.35441 -20.91982 -14.5392 23.30989 72.01979 -5.79055 3.79438 -43.26605 12.3895 -8.1538 77.90858 -86.35948 3.19383 -2.79869 21.16063 13.69362 -44.14736 -3.41499 9.43783 33.10796 13.00309 55.18908 14.57489 -0.64024 -44.14253 -8.02179 3.41444 3.96491
-1.38009 -0.25115 -0.24021 1324.36286 -40.08557 6.49291 41.17136 6.64414 8.79484 -4.64502 -4.1071 -2.11994 -10.54009 -21.01475 -13.48165 23.68863 74.81487 -4.78323 2.91991 -43.56639 11.94653 -7.5718 78.16185 -86.48269 3.36043 -4.09239 20.44715 13.69348 -44.94321 -3.91181 9.85363 33.10865 13.00308 56.73288 14.08065 -0.29101 -41.18865 -8.11792 3.48416 4.00389
-1.38461 -0.25313 -0.23364 1325.11863 -39.96494 6.59242 41.1792 6.65481 8.82101 -5.06696 -4.23895 -2.11994 -10.74005 -21.27282 -11.89331 24.03279 78.99589 -3.36054 1.71903 -43.91111 11.45113 -6.91773 78.45306 -86.74425 3.60167 -5.61293 19.71352 13.69384 -45.87982 -4.43674 10.28259 33.11638 13.00627 58.21234 13.44875 -0.16253 -37.86841 -8.25452 3.56895 4.05224
-1.38904 -0.25531 -0.22665 1325.80406 -39.94579 6.6741 41.2608 6.64506 8.8467 -5.3707 -4.398 -2.11994 -10.94642 -21.17577 -11.33409 24.43793 80.70686 -2.66885 1.07106 -44.19815 10.99561 -6.33283 78.67037 -87.02463 3.77439 -6.8013 19.03953 13.69362 -46.62607 -4.95108 10.70409 33.11525 13.00545 59.78773 13.12709 0.37662 -35.25082 -8.3244 3.61579 4.07879
-1.39321 -0.25797 -0.21866 1326.30457 -40.20319 6.72843 41.53083 6.57687 8.87824 -5.35073 -4.63697 -2.11994 -11.08678 -20.04295 -13.96811 25.02122 74.54796 -4.30777 2.19241 -44.29998 10.68439 -5.98792 78.65755 -87.07562 3.67059 -6.96892 18.52892 13.69371 -46.75015 -5.39981 11.12362 33.11687 13.00614 61.75696 13.66647 2.18747 -34.66096 -8.16432 3.55643 4.04153
-1.39729 -0.26082 -0.21024 1326.73222 -40.5599 6.76836 41.87181 6.48663 8.91792 -5.21056 -4.90344 -2.11994 -11.23839 -18.57154 -17.58188 25.66783 65.98263 -6.66273 3.86118 -44.33783 10.42696 -5.72706 78.57388 -87.11794 3.48998 -6.77978 18.06848 13.69368 -46.6745 -5.82216 11.52969 33.11654 13.00601 63.81079 14.50823 4.39683 -34.79453 -7.93967 3.46223 3.98419
-1.40141 -0.2636 -0.20196 1327.18285 -40.86788 6.81448 42.17783 6.40452 8.97185 -5.12138 -5.1563 -2.11994 -11.42015 -17.31363 -20.51505 26.28698 59.02029 -8.54801 5.18636 -44.39882 10.16826 -5.44873 78.53802 -87.16531 3.34807 -6.72803 17.56702 13.69371 -46.69743 -6.23735 11.92493 33.1167 13.00606 65.76406 15.19182 6.35467 -34.59574 -7.7647 3.39156 3.94118
-1.40554 -0.26634 -0.19388 1327.67242 -41.19383 6.85749 42.49729 6.33162 8.94887 -5.04659 -5.41337 -2.11994 -11.46004 -15.80781 -24.40514 26.89944 50.01978 -11.00624 6.88567 -44.48849 9.8067 -5.07651 78.43774 -87.23157 3.19758 -6.79092 17.14585 13.69371 -46.70097 -6.74113 12.39802 33.11697 13.00617 67.97487 15.96878 8.60267 -34.39636 -7.50827 3.28813 3.87639
-1.40962 -0.26919 -0.18529 1328.06892 -41.50358 6.90658 42.80547 6.23342 9.08532 -4.91485 -5.6684 -2.11994 -11.79322 -14.7294 -26.5787 27.54079 44.59222 -12.47305 7.95509 -44.50309 9.66986 -4.91782 78.45335 -87.26162 3.04756 -6.53508 16.56861 13.69354 -46.69148 -7.0524 12.69925 33.11571 13.00559 69.67101 16.6192 10.34557 -34.3791 -7.40265 3.24384 3.85148
-1.41366 -0.2724 -0.17553 1328.17845 -41.75965 6.96038 43.05695 6.0759 9.69896 -4.6402 -5.91075 -2.11994 -12.9611 -15.00581 -23.39056 28.25207 50.35827 -10.79422 7.03247 -44.31162 10.19679 -5.38621 78.81877 -87.00625 2.87012 -5.37506 15.54545 13.69406 -46.69906 -6.83033 12.57843 33.11921 13.00721 69.92449 16.86661 10.57239 -34.64861 -7.75184 3.38295 3.94956
-1.41766 -0.27569 -0.16526 1328.20575 -41.99264 7.02394 43.29548 5.89273 10.46619 -4.3151 -6.15004 -2.11994 -14.41829 -15.71033 -18.50411 28.98894 59.67592 -8.1319 5.47907 -44.04958 10.94168 -6.0594 79.30182 -86.73601 2.70168 -3.92183 14.36629 13.69325 -46.69429 -6.42087 12.27504 33.11379 13.00472 69.65657 16.97184 10.28226 -35.08396 -8.25031 3.58089 4.08709
-1.42165 -0.2789 -0.15516 1328.30186 -42.22629 7.09405 43.54526 5.71765 11.1382 -4.02296 -6.39126 -2.11994 -15.72384 -16.15573 -14.65716 29.71127 66.85458 -6.08322 4.29755 -43.82759 11.54764 -6.59989 79.72156 -86.60011 2.56032 -2.67637 13.25611 13.69354 -46.6951 -6.09468 12.0235 33.11535 13.00547 69.63033 17.12827 10.24513 -35.47274 -8.66558 3.74444 4.20136
-1.42574 -0.28232 -0.14528 1328.26238 -42.50608 7.11821 43.77607 5.55638 11.9176 -3.68443 -6.63192 -2.11994 -17.11359 -16.85025 -9.74994 30.45006 76.09536 -3.38298 2.78475 -43.56651 12.31219 -7.30216 80.17653 -85.95912 2.29039 -1.11523 12.14405 13.6957 -46.7038 -5.75433 11.90552 33.13039 13.01238 69.59263 17.35207 10.14554 -35.77123 -9.14428 3.9388 4.33729
-1.4296 -0.28529 -0.13484 1328.48713 -42.68155 7.23938 44.04093 5.36116 12.50986 -3.43192 -6.87173 -2.11994 -18.39826 -17.14648 -6.59019 31.15731 82.00467 -1.76256 1.79294 -43.37499 12.81188 -7.72537 80.5919 -86.32507 2.28445 -0.13275 11.01297 13.68871 -46.67749 -5.42608 11.46291 33.08272 12.99043 69.44681 17.3977 10.04809 -36.27989 -9.52613 4.08372 4.43792
-1.43286 -0.28705 -0.12296 1329.45871 -42.58576 7.63604 44.41418 5.07356 12.54615 -3.43141 -7.11793 -2.11994 -19.30434 -16.11374 -9.05875 31.79118 77.07738 -3.66177 2.49805 -43.35824 12.40487 -7.23663 80.82453 -89.83664 3.06791 -0.94114 9.74215 13.69999 -46.71847 -4.94683 10.19933 33.15296 13.02358 69.19047 16.98592 10.08086 -37.3935 -9.613 4.07525 4.43001
-1.43586 -0.28833 -0.11054 1330.69992 -42.38296 8.12781 44.81904 4.75402 12.38878 -3.51929 -7.36174 -2.11994 -20.09636 -14.68907 -13.27205 32.3875 68.82058 -6.6256 3.72829 -43.42082 11.74704 -6.47464 81.01992 -94.29923 4.10781 -2.32234 8.48168 13.69465 -46.6989 -4.52874 8.61212 33.11375 13.00623 68.8318 16.39861 10.13161 -38.69728 -9.59603 4.01557 4.38556
-1.43895 -0.28977 -0.09839 1331.81998 -42.22165 8.5701 45.20259 4.45204 12.32147 -3.56611 -7.60131 -2.11994 -20.95406 -13.52875 -16.42152 32.98871 62.61621 -8.89966 4.64574 -43.4699 11.28289 -5.89975 81.26457 -98.08328 4.9865 -3.36193 7.2972 13.66784 -46.5982 -4.23451 7.14985 32.92599 12.91999 68.47967 15.88977 10.17409 -39.8674 -9.6209 3.98122 4.3589
-1.44216 -0.29145 -0.08611 1332.93137 -42.09072 9.04081 45.61777 4.13502 12.25206 -3.61544 -7.86337 -2.11994 -21.76978 -12.02427 -20.6366 33.64586 54.2969 -11.99688 5.84975 -43.42075 10.48697 -5.0746 81.3851 -102.88743 6.04409 -4.72917 5.7627 13.76103 -46.94184 -3.29587 5.76458 33.54521 13.20752 68.27738 15.38009 10.20096 -41.24249 -9.67302 3.94043 4.32873
-1.44506 -0.29252 -0.07399 1334.12584 -41.87019 9.47266 45.97131 3.84367 12.13755 -3.68048 -8.07796 -2.11994 -22.63411 -11.1315 -23.09305 34.17272 49.49642 -13.66075 6.59577 -43.59661 10.32334 -4.69286 81.74333 -105.81726 6.80235 -5.56026 4.96666 13.60346 -46.36312 -3.7134 4.15709 32.49519 12.72195 67.74644 14.83424 10.26911 -42.23447 -9.6424 3.89983 4.29654
-1.44729 -0.29199 -0.06232 1335.48606 -41.43882 9.79175 46.17646 3.61768 11.95683 -3.77406 -8.16244 -2.11994 -23.72698 -12.07803 -20.06258 34.38719 55.64264 -10.97579 5.89901 -44.36998 11.93321 -5.68894 82.8573 -103.1271 6.56208 -4.71761 6.16656 12.73082 -43.10314 -7.88276 1.90684 26.53869 9.96387 66.32744 14.21575 10.46869 -42.1118 -9.40264 3.87451 4.26859
